# AST/ASF file generated using VICON BodyLanguage
# -----------------------------------------------
:version 1.10
:name VICON
:units
  mass 1.0
  length 0.45
  angle deg
:documentation
   .ast/.asf automatically generated from VICON data using
   VICON BodyBuilder and BodyLanguage model FoxedUp or BRILLIANT.MOD
:root
   order TX TY TZ RX RY RZ
   axis XYZ
   position 0 0 0  
   orientation 0 0 0 
:bonedata
  begin
     id 1 
     name lhipjoint
     direction 0.54267 -0.795011 0.271047 
     length 2.39899 
     axis 0 0 0  XYZ
  end
  begin
     id 2 
     name lfemur
     direction 0.34202 -0.939693 0  
     length 7.49701  
     axis 0 0 20  XYZ
    dof rx ry rz
    limits (-160.0 20.0)
           (-70.0 70.0)
           (-60.0 70.0)
  end
  begin
     id 3 
     name ltibia
     direction 0.34202 -0.939693 0   
     length 8.1668   
     axis 0 0 20   XYZ
    dof rx
    limits (-10.0 170.0)
  end
  begin
     id 4 
     name lfoot
     direction 0.0736283 -0.202292 0.976554   
     length 2.13544   
     axis -90 7.62852e-016 20   XYZ
    dof rx rz
    limits (-45.0 90.0)
           (-70.0 20.0)
  end
  begin
     id 5 
     name ltoes
     direction 1.53557e-011 -4.22024e-011 1   
     length 1.07411   
     axis -90 7.62852e-016 20   XYZ
    dof rx
    limits (-90.0 20.0)
  end
  begin
     id 6 
     name rhipjoint
     direction -0.538061 -0.797813 0.272002   
     length 2.39057  
     axis 0 0 0  XYZ 
  end
  begin
     id 7 
     name rfemur
     direction -0.34202 -0.939693 0   
     length 7.50152   
     axis 0 0 -20   XYZ
    dof rx ry rz
    limits (-160.0 20.0)
           (-70.0 70.0)
           (-70.0 60.0)
  end
  begin
     id 8 
     name rtibia
     direction -0.34202 -0.939693 0   
     length 8.05793   
     axis 0 0 -20   XYZ
    dof rx
    limits (-10.0 170.0)
 end
 begin
     id 9 
     name rfoot
     direction -0.0765195 -0.210236 0.974652   
     length 2.28698  
     axis -90 -7.62852e-016 -20   XYZ
    dof rx rz
    limits (-45.0 90.0)
           (-20.0 70.0)
  end
  begin
     id 10 
     name rtoes
     direction -1.53542e-011 -4.21847e-011 1   
     length 1.14762   
     axis -90 -7.62852e-016 -20   XYZ
    dof rx
    limits (-90.0 20.0)
  end
  begin
     id 11 
     name lowerback
     direction -0.0217239 0.996592 -0.0795765   
     length 2.08176   
     axis 0 0 0   XYZ
    dof rx ry rz
    limits (-20.0 45.0)
           (-30.0 30.0)
           (-30.0 30.0)
  end
  begin
     id 12 
     name upperback
     direction -0.00563773 0.999651 -0.0258155   
     length 2.08898   
     axis 0 0 0   XYZ
    dof rx ry rz
    limits (-20.0 45.0)
           (-30.0 30.0)
           (-30.0 30.0)
  end
  begin
     id 13 
     name thorax
     direction 0.0032706 0.999923 0.0119599   
     length 2.0968   
     axis 0 0 0   XYZ
    dof rx ry rz
    limits (-20.0 45.0)
           (-30.0 30.0)
           (-30.0 30.0)
  end
  begin
     id 14 
     name lowerneck
     direction -0.0285886 0.99568 0.0883427   
     length 1.81272   
     axis 0 0 0   XYZ
    dof rx ry rz
    limits (-20.0 45.0)
           (-30.0 30.0)
           (-30.0 30.0)
  end
  begin
     id 15 
     name upperneck
     direction 0.0807535 0.97985 -0.18268   
     length 1.82518   
     axis 0 0 0   XYZ
    dof rx ry rz
    limits (-20.0 45.0)
           (-30.0 30.0)
           (-30.0 30.0)
  end
  begin
     id 16
     name head
     direction 0.0236605 0.997053 -0.0729767  
     length 1.84443  
     axis 0 0 0   XYZ
    dof rx ry rz
    limits (-20.0 45.0)
           (-30.0 30.0)
           (-30.0 30.0)
  end
  begin
     id 17 
     name lclavicle
     direction 0.918986 0.39378 -0.0200683  
     length 3.27822  
     axis 0 0 0   XYZ
    dof ry rz
    limits (-20.0 10.0)
           (0.0 20.0)
  end
  begin
     id 18 
     name lhumerus
     direction 1 -4.4897e-011 2.09544e-027   
     length 5.5568   
     axis 180 -30 -90   XYZ
    dof rx ry rz
    limits (-60.0 90.0)
           (-90.0 90.0)
           (-90.0 90.0)
  end
  begin
     id 19
     name lradius
     direction 1 -4.48957e-011 -1.27696e-026   
     length 3.63979   
     axis 180 -30 -90   XYZ
    dof rx
    limits (-10.0 170.0)
  end
  begin
     id 20
     name lwrist
     direction 1 -4.49001e-011 -1.49001e-026   
     length 1.8199   
     axis 9.0955e-015 90 90   XYZ
    dof ry
    limits (-180.0 0.0)
 end
  begin
     id 21 
     name lhand
     direction 1 -4.48709e-011 -2.9758e-026   
     length 0.569419   
     axis 1.90115e-014 90 90   XYZ
    dof rx rz
    limits (-90.0 90.0)
           (-45.0 45.0)
  end
  begin
     id 22 
     name lfingers
     direction 1 -4.49175e-011 -5.96505e-026   
     length 0.45908   
     axis 3.80223e-014 90 90   XYZ
    dof rx
    limits (0.0 90.0)
  end
  begin
     id 23
     name lthumb
     direction 0.707107 -6.34864e-011 0.707107   
     length 0.65915   
     axis -90 45 -3.84942e-014   XYZ
    dof rx rz
    limits (-45.0 45.0)
           (-45.0 45.0)
  end
  begin
     id 24 
     name rclavicle
     direction -0.911913 0.396426 -0.106115   
     length 3.46301  
     axis 0 0 0   XYZ 
    dof ry rz
    limits (-10.0 20.0)
           (-20.0 0.0)
  end
  begin
     id 25 
     name rhumerus
     direction -1 -4.48965e-011 7.78516e-028  
     length 5.34339   
     axis 180 30 90   XYZ
    dof rx ry rz
    limits (-90.0 60.0)
           (-90.0 90.0)
           (-90.0 90.0)
  end
  begin
     id 26 
     name rradius
     direction -1 -4.48948e-011 -5.79823e-027   
     length 3.65101   
     axis 180 30 90   XYZ
    dof rx
    limits (-10.0 170.0)
  end
  begin
     id 27 
     name rwrist
     direction -1 -4.48995e-011 -1.48996e-026   
     length 1.8255   
     axis 9.0955e-015 -90 -90   XYZ
    dof ry
    limits (-180.0 0.0)
  end
  begin
     id 28
     name rhand
     direction -1 -4.48957e-011 -2.97937e-026   
     length 0.694249   
     axis 1.90115e-014 -90 -90   XYZ
    dof rx rz
    limits (-90.0 90.0)
           (-45.0 45.0)
  end
  begin
     id 29
     name rfingers
     direction -1 -4.4898e-011 -5.95943e-026   
     length 0.559721   
     axis 3.80223e-014 -90 -90   XYZ
    dof rx
    limits (0.0 90.0)
  end
  begin
     id 30
     name rthumb
     direction -0.707107 -6.34969e-011 0.707107   
     length 0.803651   
     axis -90 -45 3.84942e-014   XYZ
    dof rx rz
    limits (-45.0 45.0)
           (-45.0 45.0)
  end
:hierarchy
  begin
    root lhipjoint rhipjoint lowerback
    lhipjoint lfemur
    lfemur ltibia
    ltibia lfoot
    lfoot ltoes
    rhipjoint rfemur
    rfemur rtibia
    rtibia rfoot
    rfoot rtoes
    lowerback upperback
    upperback thorax
    thorax lowerneck lclavicle rclavicle
    lowerneck upperneck
    upperneck head
    lclavicle lhumerus
    lhumerus lradius
    lradius lwrist
    lwrist lhand lthumb
    lhand lfingers
    rclavicle rhumerus
    rhumerus rradius
    rradius rwrist
    rwrist rhand rthumb
    rhand rfingers
  end

#!OML:ASF H:\Terrain\Walking\May29\JustinRory\rory.ASF
:FULLY-SPECIFIED
:DEGREES
159
root 13.053 13.4158 3.66082 180.814 -29.0495 184.24
lowerback 45.0896 4.90201 6.61773
upperback 9.94036 5.40703 -3.53
thorax -8.81505 1.34097 -9.36524
lowerneck 2.19188 20.4985 3.85828
upperneck 14.3805 30.3593 -22.9415
head 8.50448 13.7534 -5.20911
rclavicle -8.26944e-014 8.59744e-014
rhumerus 1.11643 5.45955 -51.4226
rradius 44.8851
rwrist 1.25368
rhand -1.98692 388.713
rfingers 7.12502
rthumb 23.6859 0.152358
lclavicle -8.26944e-014 8.59744e-014
lhumerus -4.42642 21.9549 83.5153
lradius 83.155
lwrist 3.00325
lhand -21.5252 25.9645
lfingers 7.12502
lthumb 4.86727 55.8886
rfemur -50.7046 -9.54085 3.23188
rtibia 99.8045
rfoot -20.3632 -17.9129
rtoes -16.5988
lfemur -65.1037 13.407 4.99743
ltibia 89.9962
lfoot -10.6421 -9.33732
ltoes -29.961
160
root 12.9693 13.4264 3.65899 180.399 -29.7053 184.822
lowerback 45.0076 4.36865 7.11942
upperback 10.0731 4.94304 -3.62562
thorax -8.67074 1.13669 -9.52762
lowerneck 2.41705 20.9312 3.1413
upperneck 13.4523 30.7808 -23.1572
head 8.14388 14.0359 -5.17294
rclavicle -1.26725e-015 -2.59414e-014
rhumerus 1.76341 5.59333 -51.5907
rradius 44.8146
rwrist 0.62883
rhand -1.28729 388.615
rfingers 7.12502
rthumb 24.3568 0.142851
lclavicle -1.26725e-015 -2.59414e-014
lhumerus -3.29213 22.5684 83.6756
lradius 82.1005
lwrist 2.85925
lhand -21.204 26.2309
lfingers 7.12502
lthumb 5.17738 56.1476
rfemur -50.9818 -9.12431 3.12013
rtibia 100.35
rfoot -18.4314 -17.1651
rtoes -13.6772
lfemur -65.8965 13.5379 5.32842
ltibia 90.5519
lfoot -9.24229 -10.736
ltoes -33.2837
161
root 12.9149 13.3992 3.68432 180.404 -30.1642 185.454
lowerback 44.9375 3.99351 7.21836
upperback 9.83641 4.60041 -3.6721
thorax -8.97398 0.980076 -9.50295
lowerneck 2.64431 21.3242 2.3535
upperneck 12.6232 31.1187 -23.2568
head 7.77319 14.2716 -5.11919
rclavicle -3.08116e-014 1.37211e-013
rhumerus 2.20688 5.98852 -51.6569
rradius 45.0814
rwrist -0.180614
rhand -0.000430594 388.335
rfingers 7.12502
rthumb 25.59 0.0336925
lclavicle -3.08116e-014 1.37211e-013
lhumerus -2.16139 23.2842 83.986
lradius 81.0846
lwrist 4.07757
lhand -21.3286 26.9026
lfingers 7.12502
lthumb 5.05706 56.8223
rfemur -52.3344 -8.84575 3.20293
rtibia 101.197
rfoot -15.4577 -16.6468
rtoes -13.0703
lfemur -67.5061 14.1061 5.6709
ltibia 91.1831
lfoot -7.63572 -12.4443
ltoes -35.8218
162
root 12.8168 13.438 3.62436 179.058 -30.5833 186.417
lowerback 45.4019 3.6492 7.43264
upperback 9.91623 4.25642 -3.49958
thorax -9.05867 0.786595 -9.27958
lowerneck 2.7948 21.6519 1.78058
upperneck 11.9073 31.41 -23.5021
head 7.50919 14.4664 -5.12831
rclavicle -3.29983e-014 8.74653e-014
rhumerus 3.00388 6.71125 -51.6673
rradius 45.0755
rwrist -1.06194
rhand 0.542274 388.038
rfingers 7.12502
rthumb 26.1097 -0.186611
lclavicle -3.29983e-014 8.74653e-014
lhumerus -1.22889 23.8794 83.8056
lradius 80.1506
lwrist 5.94674
lhand -23.2695 27.5016
lfingers 7.12502
lthumb 3.18288 57.4576
rfemur -51.3298 -7.97011 3.6208
rtibia 101.638
rfoot -12.9458 -15.9705
rtoes -9.34614
lfemur -66.8611 14.2177 6.82831
ltibia 91.4868
lfoot -5.89344 -14.9219
ltoes -30.7267
163
root 12.7313 13.4391 3.59168 178.712 -31.2143 186.317
lowerback 45.5325 3.39721 6.92364
upperback 9.97668 3.69563 -3.52005
thorax -9.16377 0.516891 -8.79967
lowerneck 2.92234 22.0356 1.14848
upperneck 11.2095 31.769 -23.6823
head 7.24507 14.6979 -5.1048
rclavicle -9.93923e-015 -2.54444e-014
rhumerus 4.08734 7.62567 -51.5956
rradius 44.7153
rwrist -2.02007
rhand 0.236811 387.806
rfingers 7.12502
rthumb 25.8172 -0.462435
lclavicle -9.93923e-015 -2.54444e-014
lhumerus -0.581473 24.2908 84.1928
lradius 79.7313
lwrist 7.07982
lhand -25.8634 28.9955
lfingers 7.12502
lthumb 0.677689 58.9742
rfemur -51.288 -8.00099 2.90897
rtibia 102.261
rfoot -9.87177 -14.7305
rtoes -5.36584
lfemur -67.0086 13.9852 6.72182
ltibia 91.854
lfoot -4.9079 -16.4576
ltoes -25.2776
164
root 12.6531 13.4088 3.58001 178.516 -31.8201 186.076
lowerback 45.7614 3.13699 6.46471
upperback 9.98239 3.1515 -3.60824
thorax -9.34054 0.256043 -8.42939
lowerneck 3.01974 22.3841 0.448585
upperneck 10.4505 32.0505 -23.7409
head 6.92101 14.9055 -5.0581
rclavicle 1.07344e-014 -6.75868e-015
rhumerus 4.87455 8.03316 -51.6488
rradius 44.6215
rwrist -2.44835
rhand 0.633232 387.836
rfingers 7.12502
rthumb 26.1968 -0.376107
lclavicle 1.07344e-014 -6.75868e-015
lhumerus -0.751594 23.7319 80.5573
lradius 79.1148
lwrist 11.9751
lhand -27.9827 30.5044
lfingers 7.12502
lthumb -1.36921 60.4798
rfemur -51.6161 -8.35053 2.11121
rtibia 102.923
rfoot -9.09186 -13.5588
rtoes 2.06093
lfemur -67.3508 13.7614 6.37565
ltibia 92.1932
lfoot -4.82425 -17.6966
ltoes -22.5585
165
root 12.5805 13.3741 3.56081 178.253 -32.3868 186.127
lowerback 45.9636 2.85487 5.98169
upperback 9.86548 2.60537 -3.66659
thorax -9.64582 -0.00279835 -8.01361
lowerneck 3.37673 22.787 0.072312
upperneck 9.5436 32.3815 -23.9996
head 6.60146 15.1786 -5.12591
rclavicle 5.1684e-015 -6.0033e-014
rhumerus 5.4355 8.27848 -51.9902
rradius 45.0127
rwrist -2.46514
rhand 1.929 387.699
rfingers 7.12502
rthumb 27.4367 -0.32331
lclavicle 5.1684e-015 -6.0033e-014
lhumerus -0.769812 23.6532 78.6372
lradius 78.7161
lwrist 14.7597
lhand -29.5083 30.3412
lfingers 7.12502
lthumb -2.84265 60.302
rfemur -52.1286 -8.73534 1.88813
rtibia 103.549
rfoot -9.08676 -13.3378
rtoes 1.4034
lfemur -67.4881 13.7095 6.2325
ltibia 92.3647
lfoot -4.54472 -18.8905
ltoes -18.6029
166
root 12.5 13.3279 3.55711 178.834 -33.1675 185.536
lowerback 45.6281 2.46421 5.27957
upperback 9.77243 1.82451 -3.92402
thorax -9.82014 -0.333984 -7.59355
lowerneck 3.64136 23.19 -0.339124
upperneck 8.71916 32.7175 -24.1371
head 6.29839 15.4459 -5.14853
rclavicle 1.66979e-014 8.94531e-014
rhumerus 6.0117 8.56462 -52.3508
rradius 45.6092
rwrist -2.53947
rhand 2.68957 387.446
rfingers 7.12502
rthumb 28.1639 -0.458912
lclavicle 1.66979e-014 8.94531e-014
lhumerus -0.236684 24.0192 78.7508
lradius 78.3766
lwrist 15.0108
lhand -30.2431 30.1531
lfingers 7.12502
lthumb -3.55218 60.1032
rfemur -53.1123 -9.7748 0.981163
rtibia 104.045
rfoot -9.53046 -12.5385
rtoes 1.43027
lfemur -68.0904 13.3338 5.22999
ltibia 92.5444
lfoot -4.44582 -19.4478
ltoes -15.5446
167
root 12.4462 13.2687 3.53279 179.393 -33.6785 184.933
lowerback 45.1933 2.48202 4.11226
upperback 9.72592 1.33799 -4.01193
thorax -9.8741 -0.532094 -6.86732
lowerneck 4.11989 23.8116 -1.51776
upperneck 7.51274 33.1756 -24.233
head 5.73117 15.8256 -5.14958
rclavicle -8.98507e-014 9.62118e-014
rhumerus 6.83041 9.02112 -52.4821
rradius 45.8448
rwrist -2.95621
rhand 2.83694 387.611
rfingers 7.12502
rthumb 28.3047 -0.270656
lclavicle -8.98507e-014 9.62118e-014
lhumerus 0.605374 24.5479 79.9345
lradius 78.0589
lwrist 13.4843
lhand -30.1467 30.1454
lfingers 7.12502
lthumb -3.45915 60.0971
rfemur -54.3438 -10.504 0.279884
rtibia 104.426
rfoot -10.6299 -11.4935
rtoes 6.40119
lfemur -68.4617 13.4202 4.32447
ltibia 92.6803
lfoot -5.01854 -20.1104
ltoes -16.3663
168
root 12.3735 13.2206 3.51811 179.96 -34.2715 183.789
lowerback 45.1939 2.37707 3.06592
upperback 9.68991 0.701829 -4.29829
thorax -10.0316 -0.809363 -6.35646
lowerneck 4.77068 24.0138 -1.27979
upperneck 6.76753 33.3035 -25.1493
head 5.61684 15.9966 -5.50182
rclavicle 4.29375e-014 -1.59028e-015
rhumerus 7.69664 9.58696 -52.4287
rradius 45.8689
rwrist -3.63587
rhand 2.84696 387.719
rfingers 7.12502
rthumb 28.3143 -0.160685
lclavicle 4.29375e-014 -1.59028e-015
lhumerus 1.41468 24.908 81.0252
lradius 77.8035
lwrist 11.6681
lhand -29.4786 30.3348
lfingers 7.12502
lthumb -2.81392 60.296
rfemur -54.9717 -11.3133 -1.01265
rtibia 104.417
rfoot -12.2625 -10.9285
rtoes 7.098
lfemur -68.2898 13.0147 2.82207
ltibia 92.7878
lfoot -6.82546 -20.3606
ltoes -17.3475
169
root 12.3138 13.1812 3.50282 180.433 -34.7585 182.819
lowerback 45.4184 2.35485 2.11131
upperback 9.56002 0.214873 -4.53184
thorax -10.3207 -1.02112 -5.90155
lowerneck 5.42842 24.2967 -1.71163
upperneck 5.85899 33.3883 -25.5268
head 5.23924 16.1802 -5.69453
rclavicle -3.02153e-014 2.70347e-014
rhumerus 8.12036 9.96129 -52.5235
rradius 46.2859
rwrist -4.02911
rhand 2.48187 387.162
rfingers 7.12502
rthumb 27.9653 -0.775108
lclavicle -3.02153e-014 2.70347e-014
lhumerus 1.87336 24.852 80.9734
lradius 77.3875
lwrist 11.1154
lhand -29.3407 29.899
lfingers 7.12502
lthumb -2.68071 59.8619
rfemur -55.5967 -11.8299 -1.83727
rtibia 104.167
rfoot -13.951 -10.9152
rtoes 5.09836
lfemur -67.8162 12.8147 1.38712
ltibia 92.6883
lfoot -9.10834 -20.4146
ltoes -15.9377
